<?xml version="1.0" encoding="UTF-8"?>
<svg xmlns="http://www.w3.org/2000/svg" width="800" height="360" viewBox="0 0 800 360" role="img" aria-label="Star history of nicejade/markdown-online-editor">
  <defs>
    <linearGradient id="area-light" x1="0" y1="0" x2="0" y2="1">
      <stop offset="0%" stop-color="#f59e0b" stop-opacity="0.22"/>
      <stop offset="100%" stop-color="#f59e0b" stop-opacity="0"/>
    </linearGradient>
  </defs>
  <line x1="52" y1="324" x2="764" y2="324" stroke="rgba(0,0,0,0.08)" stroke-width="1" /><text x="42" y="327.5" text-anchor="end" font-size="11" fill="#636366" font-family="ui-sans-serif, system-ui, -apple-system, BlinkMacSystemFont, 'Segoe UI', sans-serif">0</text><line x1="52" y1="249" x2="764" y2="249" stroke="rgba(0,0,0,0.08)" stroke-width="1" stroke-dasharray="3 3" /><text x="42" y="252.5" text-anchor="end" font-size="11" fill="#636366" font-family="ui-sans-serif, system-ui, -apple-system, BlinkMacSystemFont, 'Segoe UI', sans-serif">1.3k</text><line x1="52" y1="174" x2="764" y2="174" stroke="rgba(0,0,0,0.08)" stroke-width="1" stroke-dasharray="3 3" /><text x="42" y="177.5" text-anchor="end" font-size="11" fill="#636366" font-family="ui-sans-serif, system-ui, -apple-system, BlinkMacSystemFont, 'Segoe UI', sans-serif">2.5k</text><line x1="52" y1="99" x2="764" y2="99" stroke="rgba(0,0,0,0.08)" stroke-width="1" stroke-dasharray="3 3" /><text x="42" y="102.5" text-anchor="end" font-size="11" fill="#636366" font-family="ui-sans-serif, system-ui, -apple-system, BlinkMacSystemFont, 'Segoe UI', sans-serif">3.8k</text><line x1="52" y1="24" x2="764" y2="24" stroke="rgba(0,0,0,0.08)" stroke-width="1" stroke-dasharray="3 3" /><text x="42" y="27.5" text-anchor="end" font-size="11" fill="#636366" font-family="ui-sans-serif, system-ui, -apple-system, BlinkMacSystemFont, 'Segoe UI', sans-serif">5k</text>
  <polygon fill="url(#area-light)" points="52,324 52,323.94 60.9,319.02 69.24,314.1 105.69,309.18 108.39,304.26 109.1,299.34 111.02,294.42 115.9,289.5 117.69,284.58 135.77,279.66 144.76,274.74 154.48,269.82 168.76,264.9 186.22,259.98 197.15,255.06 210.15,250.14 237,245.22 259.94,240.3 283.08,235.38 303.46,230.46 326.9,225.54 353.74,220.62 376.12,215.7 401.36,210.78 429.53,205.86 451.63,200.94 468.6,196.02 492.81,191.1 521.46,186.18 544.66,181.26 562.81,176.34 582.69,171.42 605.61,166.5 627.15,161.58 649.47,156.66 672.85,151.74 672.97,146.82 673.29,141.9 675.96,136.98 683.96,132.06 684.73,127.14 690.37,122.22 705.23,117.3 724.13,112.38 728.53,107.46 746.11,102.54 749.59,97.62 752.04,92.7 762.69,87.78 763.96,86.34 764,86.34 764,324"/>
  <polyline fill="none" stroke="#f59e0b" stroke-width="2.5" stroke-linecap="round" stroke-linejoin="round" points="52,323.94 60.9,319.02 69.24,314.1 105.69,309.18 108.39,304.26 109.1,299.34 111.02,294.42 115.9,289.5 117.69,284.58 135.77,279.66 144.76,274.74 154.48,269.82 168.76,264.9 186.22,259.98 197.15,255.06 210.15,250.14 237,245.22 259.94,240.3 283.08,235.38 303.46,230.46 326.9,225.54 353.74,220.62 376.12,215.7 401.36,210.78 429.53,205.86 451.63,200.94 468.6,196.02 492.81,191.1 521.46,186.18 544.66,181.26 562.81,176.34 582.69,171.42 605.61,166.5 627.15,161.58 649.47,156.66 672.85,151.74 672.97,146.82 673.29,141.9 675.96,136.98 683.96,132.06 684.73,127.14 690.37,122.22 705.23,117.3 724.13,112.38 728.53,107.46 746.11,102.54 749.59,97.62 752.04,92.7 762.69,87.78 763.96,86.34 764,86.34"/>
  <circle cx="764" cy="86.34" r="4" fill="#f59e0b" />
  <text x="52" y="346" text-anchor="start" font-size="11" fill="#636366" font-family="ui-sans-serif, system-ui, -apple-system, BlinkMacSystemFont, 'Segoe UI', sans-serif">2019</text><text x="115.21" y="346" text-anchor="middle" font-size="11" fill="#636366" font-family="ui-sans-serif, system-ui, -apple-system, BlinkMacSystemFont, 'Segoe UI', sans-serif">2020</text><text x="212.51" y="346" text-anchor="middle" font-size="11" fill="#636366" font-family="ui-sans-serif, system-ui, -apple-system, BlinkMacSystemFont, 'Segoe UI', sans-serif">2021</text><text x="309.54" y="346" text-anchor="middle" font-size="11" fill="#636366" font-family="ui-sans-serif, system-ui, -apple-system, BlinkMacSystemFont, 'Segoe UI', sans-serif">2022</text><text x="406.58" y="346" text-anchor="middle" font-size="11" fill="#636366" font-family="ui-sans-serif, system-ui, -apple-system, BlinkMacSystemFont, 'Segoe UI', sans-serif">2023</text><text x="503.62" y="346" text-anchor="middle" font-size="11" fill="#636366" font-family="ui-sans-serif, system-ui, -apple-system, BlinkMacSystemFont, 'Segoe UI', sans-serif">2024</text><text x="600.92" y="346" text-anchor="middle" font-size="11" fill="#636366" font-family="ui-sans-serif, system-ui, -apple-system, BlinkMacSystemFont, 'Segoe UI', sans-serif">2025</text><text x="697.95" y="346" text-anchor="middle" font-size="11" fill="#636366" font-family="ui-sans-serif, system-ui, -apple-system, BlinkMacSystemFont, 'Segoe UI', sans-serif">2026</text>
</svg>
